<svg width="154" height="154" viewBox="0 0 154 154" fill="none" xmlns="http://www.w3.org/2000/svg">
<path d="M131.542 16.0416H22.4584L32.0834 125.125L77 137.958L121.917 125.125L131.542 16.0416Z" fill="#0277BD"/>
<path d="M77 25.6666V128.012L112.933 117.746L120.954 25.6666H77Z" fill="#039BE5"/>
<path d="M106.196 41.7084H77V54.5417H92.7208L91.7583 67.375H77V80.2084H91.1167L90.1542 94.6459L77 99.1375V112.613L102.346 104.271L104.592 67.375L106.196 41.7084Z" fill="white"/>
<path d="M76.9999 41.7084V54.5417H48.4458L47.4833 41.7084H76.9999ZM62.2416 67.375L62.8833 80.2084H76.9999V67.375H62.2416ZM63.5249 86.625H50.6916L51.6541 104.271L76.9999 112.613V99.1375L63.8458 94.6459L63.5249 86.625Z" fill="#EEEEEE"/>
</svg>
