<svg width="35" height="36" viewBox="0 0 35 36" fill="none" xmlns="http://www.w3.org/2000/svg">
<path d="M17.5 4.17188C9.86334 4.17188 3.67175 10.3635 3.67175 18.0001C3.67175 24.4798 8.13366 29.9016 14.1489 31.4019C14.0844 31.2153 14.0429 30.9986 14.0429 30.7301V28.3666C13.4817 28.3666 12.5414 28.3666 12.3052 28.3666C11.3591 28.3666 10.5179 27.9599 10.1099 27.2039C9.65707 26.3639 9.57871 25.079 8.45632 24.2931C8.12329 24.0315 8.3768 23.733 8.76054 23.7734C9.46923 23.9739 10.0569 24.4602 10.6101 25.1815C11.1609 25.9041 11.4202 26.0677 12.4492 26.0677C12.9482 26.0677 13.6949 26.0389 14.3978 25.9283C14.7758 24.9684 15.4292 24.0845 16.2278 23.6674C11.623 23.1937 9.42544 20.9029 9.42544 17.7927C9.42544 16.4536 9.99586 15.1584 10.965 14.0671C10.6469 12.9839 10.2471 10.7748 11.0871 9.93363C13.1591 9.93363 14.4117 11.2773 14.7124 11.6403C15.7449 11.2865 16.8789 11.086 18.0704 11.086C19.2642 11.086 20.4027 11.2865 21.4376 11.6426C21.7349 11.2819 22.9886 9.93363 25.0652 9.93363C25.9087 10.776 25.5042 12.9943 25.1827 14.0752C26.1461 15.1642 26.713 16.4559 26.713 17.7927C26.713 20.9006 24.5189 23.1903 19.9211 23.6662C21.1863 24.3265 22.1094 26.1818 22.1094 27.5796V30.7301C22.1094 30.85 22.0829 30.9364 22.069 31.0389C27.4574 29.1502 31.3282 24.0338 31.3282 18.0001C31.3282 10.3635 25.1366 4.17188 17.5 4.17188Z" fill="white"/>
</svg>
