<svg width="154" height="154" viewBox="0 0 154 154" fill="none" xmlns="http://www.w3.org/2000/svg">
<path d="M131.542 16.0416H22.4584L32.0834 125.125L77 137.958L121.917 125.125L131.542 16.0416Z" fill="#E65100"/>
<path d="M77 25.6666V128.012L112.933 117.746L120.954 25.6666H77Z" fill="#FF6D00"/>
<path d="M77 80.2084V67.375H104.592L102.346 104.271L77 112.613V99.1375L90.1542 94.6459L91.1167 80.2084H77ZM105.554 54.5417L106.517 41.7084H77V54.5417H105.554Z" fill="white"/>
<path d="M77 99.1375V112.613L51.6542 104.271L50.3709 86.625H63.2042L63.8459 94.6459L77 99.1375ZM61.2792 54.5417H77V41.7084H47.8042L50.05 80.2084H77V67.375H62.2417L61.2792 54.5417Z" fill="#EEEEEE"/>
</svg>
