<svg width="34" height="34" viewBox="0 0 34 34" fill="none" xmlns="http://www.w3.org/2000/svg">
<path d="M13.9616 18.1497C14.5589 18.9491 15.321 19.6105 16.1961 20.0891C17.0712 20.5677 18.0389 20.8523 19.0336 20.9236C20.0282 20.9949 21.0266 20.8512 21.9609 20.5023C22.8952 20.1535 23.7436 19.6075 24.4486 18.9016L28.6212 14.7248C29.888 13.4119 30.5889 11.6535 30.5731 9.82825C30.5572 8.00303 29.8259 6.25707 28.5365 4.96639C27.2471 3.67572 25.5029 2.94361 23.6795 2.92775C21.8561 2.91189 20.0995 3.61355 18.7879 4.8816L16.3956 7.26234M19.525 15.3652C18.9277 14.5659 18.1657 13.9045 17.2906 13.4259C16.4154 12.9473 15.4477 12.6627 14.4531 12.5914C13.4584 12.5201 12.4601 12.6638 11.5258 13.0126C10.5915 13.3615 9.74302 13.9075 9.03802 14.6134L4.86547 18.7902C3.5987 20.1031 2.89775 21.8615 2.91359 23.6867C2.92944 25.5119 3.66081 27.2579 4.95018 28.5486C6.23956 29.8393 7.98377 30.5714 9.80715 30.5872C11.6305 30.6031 13.3872 29.9014 14.6988 28.6334L17.0771 26.2526" stroke="white" stroke-width="2" stroke-linecap="round" stroke-linejoin="round"/>
</svg>
